<?xml version="1.0" encoding="utf-8"?>
<!-- Generator: Adobe Illustrator 20.0.0, SVG Export Plug-In . SVG Version: 6.00 Build 0)  -->
<svg version="1.1" id="Layer_1" xmlns="http://www.w3.org/2000/svg" xmlns:xlink="http://www.w3.org/1999/xlink" x="0px" y="0px"
	 viewBox="0 0 492.8 243.1" style="enable-background:new 0 0 492.8 243.1;" xml:space="preserve">
<style type="text/css">
	.st0{fill:#FFFFFF;}
</style>
<path class="st0" d="M345.8,152v26.4c0,1,0.1,2.2,0.2,3.3h-0.2c-0.4-1-0.9-2.1-1.5-3.3l-15-26.4h-3.3v33.3h2.6v-26.5
	c0-1.3,0-2.4-0.2-3.5h0.2c0.4,1,0.9,2.2,1.6,3.5l15.1,26.5h3.3V152H345.8z M351.1,199.3v2.5h8.8v30.9h2.8v-30.9h8.8v-2.5H351.1z
	 M400.2,230.1c-1.1,0-1.5-0.4-2.3-1.7l-5.5-10.6c4.4-1.2,6.8-4.2,6.8-9.1c0-6.5-3.9-9.4-10.1-9.4h-9.4v33.3h2.8v-14.2h7.2l5.9,11.4
	c1.2,2.3,2.1,3,4.1,3c0.5,0,1-0.1,1.5-0.1V230C400.9,230.1,400.6,230.1,400.2,230.1 M388.8,216.1h-6.3v-14.4h6.6
	c5.1,0,7.3,2.7,7.3,7C396.4,213.5,393.7,216.1,388.8,216.1 M328.4,130.4c-1.1,0-1.4-0.2-2-1.3l-3.9-7.4c3.8-1.8,6-5.2,6-10.3
	c0-8.1-5-11.2-12.6-11.2h-14v37.7h8.6v-14h3.8l4.5,9.2c1.9,3.9,3.6,5,7.4,5c0.8,0,2.3-0.1,3.2-0.3v-7.7
	C329.1,130.4,328.9,130.4,328.4,130.4 M315.1,117.4h-4.4v-10.3h4.8c3.1,0,4.3,1.7,4.3,4.8C319.7,115.7,318.1,117.4,315.1,117.4
	 M311.2,230.2h-15.1V217h14.4v-2.4h-14.4v-12.8h15.1v-2.5h-17.9v33.3h18.2L311.2,230.2z M284.6,228.6c-3.8,1.6-5.9,2-7.5,2
	c-6,0-10.3-2.3-10.3-14.6c0-11.8,4-14.5,9.9-14.5c2,0,4.4,0.5,7.1,1.5l0.7-2.7c-3.5-1-5.5-1.4-7.9-1.4c-8.3,0-12.8,5-12.8,17
	c0,12.3,4.2,17.2,13.2,17.2c2,0,4.4-0.3,8.2-1.9L284.6,228.6z M411.9,182.8c-1.1,0-1.5-0.4-2.3-1.7l-5.5-10.6
	c4.4-1.2,6.8-4.2,6.8-9.1c0-6.5-3.9-9.4-10-9.4h-9.5v33.3h2.8v-14.2h7.2l5.9,11.4c1.2,2.3,2.1,3,4.1,3c0.4,0,1,0,1.4-0.1v-2.6
	C412.5,182.8,412.2,182.8,411.9,182.8 M400.5,168.8h-6.3v-14.5h6.6c5.1,0,7.3,2.7,7.3,7C408,166.2,405.3,168.8,400.5,168.8
	 M284.6,181.3c-3.8,1.6-5.9,2-7.5,2c-6,0-10.3-2.3-10.3-14.6c0-11.8,4-14.5,9.9-14.5c2,0,4.4,0.5,7.1,1.5l0.7-2.7
	c-3.5-1-5.5-1.4-7.9-1.4c-8.3,0-12.8,5.1-12.8,17c0,12.3,4.2,17.2,13.2,17.2c2,0,4.4-0.3,8.2-1.9L284.6,181.3z M295.5,100.3h-9.2
	l-8.5,12.5c-1,1.5-1.8,3.1-2.4,4.7h-0.5v-17.2h-8.8v37.7h8.8v-9l4.5-6.1l5.1,10c2.3,4.6,3.9,5.4,7.4,5.4c1,0,2-0.1,3.2-0.3v-7.7
	c-0.3,0-0.7,0.1-1.1,0.1c-1.1,0-1.4-0.3-2-1.3l-7.2-14l10.7-14.3V100.3z M356.7,100.3h-11.9l-10.6,37.7h8.8l2.3-9h10.4l2.2,9h9.1
	L356.7,100.3z M346.9,122.3l2.7-10.3c0.5-1.8,0.7-3.4,0.7-4.9h0.5c0.1,1.5,0.2,3.2,0.7,5l2.6,10.3H346.9z M370.5,167.3v2.4h7.7v12.3
	c-3.3,0.9-5.3,1.2-7,1.2c-6.5,0-10.3-3-10.3-14.6c0-12,4-14.5,10.7-14.5c2,0,4.5,0.4,8.5,1.6l0.7-2.7c-4.4-1.2-7-1.5-9.4-1.5
	c-9,0-13.5,4.6-13.5,17c0,12,3.9,17.2,13.2,17.2c2.1,0,5.7-0.5,9.8-1.8v-16.6H370.5z M422.8,99.8c-10,0-15.8,6.1-15.8,19.6
	c0,13.9,5.7,19.2,15.8,19.2c9.9,0,15.9-5.6,15.9-19.4C438.7,105.3,432.9,99.8,422.8,99.8 M422.8,131.4c-4.8,0-6.5-1.9-6.5-12.2
	c0-10.5,1.7-12.2,6.5-12.2c4.5,0,6.6,1.7,6.6,12.2C429.3,129.5,427.5,131.4,422.8,131.4 M402.2,100.3H393l-8.6,12.5
	c-1,1.5-1.8,3.1-2.4,4.7h-0.5v-17.2h-8.8v37.7h8.8v-9l4.5-6.1l5.1,10c2.3,4.6,3.9,5.4,7.4,5.4c1,0,2-0.1,3.2-0.3v-7.7
	c-0.3,0-0.7,0.1-1.1,0.1c-1.1,0-1.4-0.3-2-1.3l-7.2-14l10.7-14.3V100.3z M422.8,92.5l-3.7,5.5v0.6h6.7l5.4-6H422.8z M303.4,151.6
	c-7.5,0-12.8,4.6-12.8,17.2c0,12.4,5,17,12.8,17c7.7,0,12.8-4.8,12.8-17.1C316.2,156.2,311.1,151.6,303.4,151.6 M303.4,183.3
	c-5.6,0-9.8-2.9-9.8-14.6c0-11.4,3.8-14.6,9.8-14.6c6.1,0,9.8,3.3,9.8,14.6C313.2,180.7,309,183.3,303.4,183.3 M438.8,182.9h-15.1
	v-13.2h14.5v-2.4h-14.5v-12.8h15.1V152h-17.9v33.3h18.2L438.8,182.9z M459.8,168.3l-5.3-2.2c-3.6-1.5-4.9-2.9-4.9-5.6
	c0-4.4,2.8-6.4,7.2-6.4c1.9,0,3.7,0.3,7.2,1l0.5-2.6c-3.3-0.7-5.6-0.9-7.5-0.9c-6.4,0-10.3,3.6-10.3,9c0,3.7,1.7,6,6.6,8.1l5.4,2.2
	c3.4,1.5,4.8,3,4.8,6c0,4-2.3,6.4-6.9,6.4c-2.3,0-3.7-0.2-8.8-1.6l-0.8,2.6c4.6,1.3,6.8,1.5,9.4,1.5c5.6,0,9.9-2.8,9.9-9
	C466.3,172.5,464.2,170.1,459.8,168.3 M427.2,230.2h-15.1V217h14.5v-2.4h-14.5v-12.8h15.1v-2.5h-17.9v33.3h18.2L427.2,230.2z
	 M486.2,168.3l-5.3-2.2c-3.6-1.5-4.9-2.9-4.9-5.6c0-4.4,2.8-6.4,7.2-6.4c2,0,3.7,0.3,7.2,1l0.5-2.6c-3.3-0.7-5.6-0.9-7.5-0.9
	c-6.4,0-10.3,3.6-10.3,9c0,3.7,1.7,6,6.6,8.1l5.4,2.2c3.5,1.5,4.8,3,4.8,6c0,4-2.3,6.4-6.9,6.4c-2.3,0-3.7-0.2-8.8-1.6l-0.8,2.6
	c4.5,1.3,6.8,1.5,9.4,1.5c5.6,0,9.9-2.8,9.9-9C492.8,172.5,490.6,170.1,486.2,168.3 M340.2,199.3v26.4c0,1,0.1,2.2,0.1,3.3h-0.2
	c-0.4-1-0.9-2.1-1.5-3.3l-15.1-26.4h-3.3v33.3h2.6v-26.5c0-1.3,0-2.4-0.2-3.5h0.2c0.4,1.1,0.9,2.2,1.6,3.5l15.1,26.5h3.3v-33.3
	H340.2z M481.4,100.3l-3.8,21.7c-0.3,1.5-0.5,4.3-0.5,5.6h-0.5c0-1.3-0.3-4.1-0.7-5.6l-4.8-19.5H462l-4.7,19.5
	c-0.6,2.5-0.9,4.4-0.9,5.6h-0.5c0-1.3-0.3-4-0.5-5.6l-3.6-21.7H443l7.4,37.7h9.5l5.5-21c0.4-1.4,0.6-3.7,0.6-5.1h0.5
	c0,1.4,0.3,3.7,0.7,5.1l5.5,21h9.5l7.4-37.7H481.4z M218.5,113.6c0.3-0.6,0.5-1.1,0.7-1.7c3.4-8.8,3.8-18.5,2.1-27.6
	c-0.8-4.5-2-9.1-4.1-13.3c-2.1-4.2-5.1-8-8.7-11c-7.2-6.1-15.9-9.3-24.4-12.3c-8.5-2.9-17-5.5-25.2-8.8
	c-8.9-3.7-16.3-10.2-23.7-16.6c-7.4-6.4-15-13.2-24.2-17.6c-4.6-2.2-9.6-3.8-14.7-4.4C91.2-0.3,86,0.1,81,1
	c-10,1.8-19.9,6.9-26.5,15c-3.4,4.1-5.8,8.6-7.8,13.3c-2,4.7-3.5,9.6-4.5,14.6c-0.9,4.3-1.5,8.7-1.8,13.1c-2.2,0.7-4.5,1.2-7,1.9
	c-2.5,0.8-5,2.1-7.1,3.9c-1,0.9-1.9,1.9-2.8,2.9c-0.8,1.1-1.6,2.2-2.2,3.4c-1.2,2.4-1.9,4.9-2.4,7.4c-1,5-1.2,9.9-1.3,14.8
	l-0.2,14.6c-0.2,9.7-0.7,19.4-3,28.6c-2.4,8.3-6.6,16.2-9.7,24.5c-1.6,4.2-3,8.5-3.9,13c-0.8,4.5-1.1,9.3,0.2,13.9
	c0.6,2.3,1.7,4.6,2.9,6.5c1.3,2,2.8,3.9,4.5,5.5c3.4,3.3,7.6,5.6,11.9,7.3c8.6,3.3,17.6,4.6,26.4,5.7c8.8,1,17.7,1.7,26.5,2.4
	c3.5,0.3,6.9,0.6,10.4,0.8c2.6,1.8,5.2,3.7,7.7,5.7c5.4,4.1,10.8,8.3,16.5,12.1c5.7,3.8,11.8,7.4,18.7,9c4.9,1.2,10.1,2.1,15.2,2.1
	c5.2,0,10.4-0.7,15.3-2.6c4.9-1.8,9.4-4.8,13.2-8.4c3.8-3.6,6.8-7.9,9.4-12.4c5-9,8-18.9,10.2-28.8c1.2-4.9,2-10,3.1-14.7
	c1.2-4.8,2.7-9.5,4.6-14c1.9-4.5,4.2-8.8,6.8-12.9c2.7-4.1,5.7-8,8.7-12c1.5-2.1,3.1-4.2,4.4-6.6c1.3-2.4,2.3-5.3,2.5-8.3
	c0.2-3-0.4-5.9-1.4-8.5C218.6,113.8,218.6,113.7,218.5,113.6 M45.8,59.4c1-0.5,2-1.1,2.9-1.6c2.1-1.3,4.2-2.7,6.2-4.1
	c4-2.8,7.9-5.6,12-8.1c8-5.1,16.7-8.9,26-10.3c4.6-0.8,9.3-0.9,13.9-0.6c4.7,0.3,9.2,1.1,13.6,2.5c8.8,2.9,16.8,8,24,14.1
	c1.1,0.9,2.1,1.9,3.2,2.8c-6.8-3.6-13.4-6.6-19.9-8.9c-7.9-2.8-15.6-4.4-23.2-4.4c-9.1,0-18,2.4-26.4,7.6c-6.1,3.8-10.2,9-13,14.8
	c-4.2,8.8-5.7,19-7.5,29.6c-0.9,5.6-2,11.4-3.4,17.1c-1-2.8-2-5.5-2.9-8.2c-3.2-9-4.9-18.4-5.4-28C45.6,68.9,45.6,64.2,45.8,59.4
	 M155.3,114.5v7.8H141v8.6h15.6l0.6,7.8h-25.5V98.5h24.8v7.8H141v8.2H155.3z M113.3,131.2c2.1,0,4.5-0.7,9.4-3l1.9,8.2
	c-5.5,2.3-8.7,2.8-11.7,2.8c-12.3,0-16.9-7-16.9-20.7c0-15.2,6.3-20.6,16.6-20.6c3,0,5.7,0.4,11.3,2.1l-2,8.2
	c-4.6-1.8-6.7-2.3-8.7-2.3c-4.9,0-7.3,1.5-7.3,12.4C105.9,129.9,108.4,131.2,113.3,131.2 M87.9,138.7h-9.4V98.5h9.4V138.7z
	 M73.5,208.1c-8.8-0.6-17.6-1.1-26.4-1.9c-8.7-0.9-17.4-2-25.4-4.9c-3.9-1.5-7.6-3.5-10.6-6.2c-3-2.8-5.4-6.3-6.5-10.1
	c-1.1-3.9-1.1-8.1-0.3-12.3c0.7-4.2,2-8.3,3.5-12.4c1.5-4.1,3.2-8.2,4.9-12.3c1.7-4.1,3.3-8.3,4.5-12.7c2.6-9.6,3.3-19.5,3.6-29.3
	l0.4-14.6c0.2-4.8,0.5-9.6,1.5-14.2c0.5-2.3,1.2-4.5,2.2-6.4c0.5-1,1.1-1.9,1.8-2.7c0.7-0.9,1.5-1.6,2.3-2.3
	c1.6-1.4,3.5-2.3,5.7-2.9c1.7-0.5,3.6-0.9,5.5-1.4c-0.2,4.1-0.3,8.2-0.1,12.4c0.3,10,2,20.3,5.2,29.8c1.5,4.8,3.5,9.4,4.2,13.6
	c0.5,2.6,0.3,5.2-0.4,7.7l0,0.1l0,0c-2.7,6.1-5.3,12.2-7.6,18.6c-2.3,6.5-4.3,13.3-5.1,20.4c-0.4,3.6-0.5,7.2,0,10.9
	c0.5,3.7,1.6,7.3,3.6,10.6c2,3.3,4.7,6,7.8,8.1c1.5,1,3.2,1.9,4.8,2.6c1.6,0.7,3.1,1.3,4.6,2.1c6,2.8,11.7,6.1,17.3,9.6
	C74.1,208.1,73.8,208.1,73.5,208.1 M82.7,208.6c-7.4-5.4-15.2-10.4-23.4-14.5c-1.5-0.8-3.1-1.5-4.7-2.3c-1.4-0.7-2.8-1.4-4-2.3
	c-2.5-1.8-4.6-4-6.1-6.5c-3-5.2-3.3-11.7-2.4-18c0.5-3.8,1.5-7.6,2.6-11.3c0.4,1.4,0.9,2.9,1.5,4.2c2.7,6,7.2,11.5,13.5,16.4
	c6.3,4.9,14.3,9.4,24,13.3c17.9,7.3,30.1,10.6,39.7,10.6c2.2,0,4.3-0.2,6.2-0.6c-2,2.1-4.1,4-6.4,5.7c-1.6,1.2-3.4,2.3-5.1,3
	c-1.8,0.8-3.7,1.3-5.7,1.7c-4,0.8-8.3,1-12.7,1.1C94.1,209.2,88.4,208.9,82.7,208.6 M208.8,134.1c-2.9,4-6,8.1-8.7,12.5
	c-2.7,4.4-5.1,9-7,13.8c-1.9,4.8-3.4,9.7-4.6,14.7c-1.2,5.1-1.8,10-2.9,14.8c-2,9.7-4.7,19.3-9.4,27.9c-2.3,4.3-5.1,8.3-8.5,11.7
	c-3.4,3.4-7.4,6.1-11.9,7.8c-9,3.6-19.2,3.1-28.7,0.9c-6.3-1.6-12.1-5.1-17.5-9c-5.5-3.9-10.7-8.2-16-12.4c-0.9-0.7-1.8-1.5-2.8-2.2
	c3,0.1,6,0.3,9,0.3c4.5,0,9.1-0.1,13.7-0.9c2.3-0.4,4.7-1,7-1.9c2.4-1,4.4-2.2,6.4-3.6c7.8-5.5,13.4-12.8,18.6-20
	c3.2-3.4,5.8-7.1,8.3-10.6c2.6-3.6,5.2-7.2,7.9-10.6c1.4-1.7,2.8-3.4,4.2-4.9c1.4-1.5,3-2.9,4.7-4.2c3.4-2.7,7-5.2,10.7-7.7
	c7.3-5,14.9-10.1,21.7-16.3c4.2-3.8,8.1-8.1,11.3-13c0,0.3,0,0.5,0,0.7C214.2,126.1,211.6,130.1,208.8,134.1 M185.4,89.1
	c-0.8-2-1.8-4-3-6c2.6,1.8,5.1,3.7,7.6,5.7c7.7,6.1,14.8,13,20,21c1,1.5,1.9,3.1,2.6,4.7c-3.3,6-7.9,11.3-13.2,15.8
	c-6.5,5.7-13.9,10.5-21.4,15.4c-2.3,1.5-4.5,3-6.8,4.6c5-6.9,9.3-13.3,12.4-20c3.4-7.2,5.3-14.8,5.4-23.2v-0.4
	C189,100.9,187.9,95,185.4,89.1 M215.6,107.7c-0.2-0.3-0.4-0.7-0.6-1c-5.6-9-13.1-16.3-20.9-22.9c-7.8-6.4-16.1-12.1-24.6-17.3
	c-6.6-7-13.3-14-21-20.2c-7.7-6.3-16.5-11.8-26.3-14.8c-4.9-1.5-10.1-2.3-15.1-2.5c-5.1-0.2-10.2,0-15.2,0.9
	c-10,1.7-19.4,6.1-27.7,11.6c-4.2,2.7-8.1,5.6-12,8.5c-2,1.4-3.9,2.8-5.9,4.1c-0.1,0.1-0.1,0.1-0.2,0.1c0.3-3.1,0.7-6.1,1.3-9.2
	c0.9-4.7,2.2-9.3,4-13.7c1.8-4.4,4-8.6,6.8-12.2c5.7-7.3,14.4-12,23.6-13.8c4.6-0.9,9.4-1.3,14-0.9c4.7,0.5,9.2,1.8,13.5,3.8
	c8.6,4,16.1,10.4,23.7,16.7c7.5,6.3,15.3,12.9,24.8,16.7c8.3,3.5,16.8,6.3,25.2,9.3c8.3,3.1,16.6,6.5,23,12.1
	c3.2,2.8,5.8,6.2,7.5,9.9c1.8,3.8,2.8,7.9,3.5,12.2C218.3,92.7,218,100.5,215.6,107.7"/>
</svg>
